# xmcd
#
# Track frame offsets:
#	150
#	24400
#	44425
#	62575
#	80275
#	97300
#	119650
#	138550
#	155350
#	167875
#	181525
#	194800
#	206650
#	229075
#	242950
#	260955
#
# Disc length: 3758 seconds
#
# Revision: 2
# Processed by: cddbd v1.5.2PL0 Copyright (c) Steve Scherf et al.
# Submitted via: audiograbber 1.83.01
#
DISCID=ed0eac10
DTITLE=Various Artist - Lovin' Feelings [CD 2)
DYEAR=1991
DGENRE=Pop
TTITLE0=The Chimes - I Still Haven't Found What I'm Looking For
TTITLE1=Santana - Samba Pa Ti
TTITLE2=Gregory Abbott - Shake You Down
TTITLE3=Alison Moyet - Invisible
TTITLE4=Leonard Cohen - Suzanne
TTITLE5=The Window Speaks - Something's Gotten Hold Of My Heart
TTITLE6=Cock Robin - Just Around The Corner
TTITLE7=Albert Hammond - The Air That I Breathe
TTITLE8=Albert West - Ginny Come Lately
TTITLE9=Johnny Logan - Hold Me Now
TTITLE10=The Three Degrees - When Will I See You Again
TTITLE11=Bobby Vinton - Roses Are Red
TTITLE12=Sade - Smooth Operator
TTITLE13=Fleetwood Mac - Albatross
TTITLE14=Michael Bolton - I Almost Believed You
TTITLE15=Meat Loaf - Heaven Can Wait
EXTD=YEAR: 1991
EXTT0=
EXTT1=
EXTT2=
EXTT3=
EXTT4=
EXTT5=
EXTT6=
EXTT7=
EXTT8=
EXTT9=
EXTT10=
EXTT11=
EXTT12=
EXTT13=
EXTT14=
EXTT15=
PLAYORDER=
